Coordinates
version=1
nRows=30
nColumns=38
inDegrees=no

Units are S.I. units (second, meters, Newtons, ...)
If the header above contains a line with 'inDegrees', this indicates whether rotational values are in degrees (yes) or radians (no).

endheader
time	pelvis_tilt	pelvis_list	pelvis_rotation	pelvis_tx	pelvis_ty	pelvis_tz	hip_flexion_r	hip_adduction_r	hip_rotation_r	knee_angle_r	ankle_angle_r	subtalar_angle_r	mtp_angle_r	hip_flexion_l	hip_adduction_l	hip_rotation_l	knee_angle_l	ankle_angle_l	subtalar_angle_l	mtp_angle_l	lumbar_extension	lumbar_bending	lumbar_rotation	arm_flex_r	arm_add_r	arm_rot_r	elbow_flex_r	pro_sup_r	wrist_flex_r	wrist_dev_r	arm_flex_l	arm_add_l	arm_rot_l	elbow_flex_l	pro_sup_l	wrist_flex_l	wrist_dev_l
0	2.02283	1.44307	-0.313258	0.570854	-0.689308	0.923104	0.31036	0.0620164	-0.266776	0.382578	-0.394226	0	0	-0.308617	-0.216056	-0.359126	0.490867	-0.414152	0	0	-0.0903231	0.140603	-0.225455	-0.208352	-0.252142	-0.150548	0.692338	0.491824	0	0	0.0533514	-0.271789	0.253056	0.840604	1.48621	0	0
0.01	1.99755	1.44108	-0.294103	0.572626	-0.678337	0.92382	0.311965	0.0685294	-0.2628	0.405179	-0.382606	0	0	-0.282586	-0.230274	-0.339909	0.548309	-0.452153	0	0	-0.0883587	0.143146	-0.224299	-0.207581	-0.250158	-0.155292	0.692099	0.498935	0	0	0.0384422	-0.266329	0.233552	0.837061	1.49209	0	0
0.02	1.99104	1.43595	-0.292647	0.574294	-0.666947	0.924661	0.305868	0.0770348	-0.268051	0.421212	-0.370338	0	0	-0.2586	-0.247695	-0.321987	0.607038	-0.494027	0	0	-0.0888308	0.148198	-0.221216	-0.2104	-0.247998	-0.164322	0.694952	0.505386	0	0	0.0247774	-0.259366	0.215499	0.830706	1.50522	0	0
0.03	1.9863	1.43036	-0.292631	0.575939	-0.655708	0.925395	0.296924	0.0857105	-0.27698	0.432611	-0.358516	0	0	-0.232153	-0.265079	-0.301482	0.66858	-0.528819	0	0	-0.089383	0.153513	-0.217174	-0.213901	-0.245565	-0.174577	0.698396	0.511112	0	0	0.0129577	-0.253556	0.202328	0.823647	1.5115	0	0
0.04	1.98076	1.42547	-0.29205	0.577613	-0.644671	0.925946	0.286844	0.0936573	-0.286389	0.441519	-0.345852	0	0	-0.202835	-0.28055	-0.279045	0.731995	-0.553973	0	0	-0.0896401	0.157805	-0.21165	-0.218487	-0.24235	-0.186916	0.703156	0.518454	0	0	0.00210238	-0.249501	0.193662	0.81675	1.51669	0	0
0.05	1.9766	1.42165	-0.29322	0.579267	-0.63385	0.92643	0.275395	0.100567	-0.295364	0.447421	-0.334507	0	0	-0.171414	-0.293494	-0.256556	0.796685	-0.565948	0	0	-0.089845	0.160866	-0.204421	-0.223978	-0.238905	-0.200235	0.708976	0.528764	0	0	-0.00756239	-0.24731	0.190655	0.809812	1.51714	0	0
0.06	1.96389	1.41948	-0.287091	0.580898	-0.623226	0.92691	0.265726	0.106309	-0.302856	0.453505	-0.320021	0	0	-0.137126	-0.304808	-0.238515	0.861257	-0.58704	0	0	-0.092145	0.162527	-0.212907	-0.21503	-0.257264	-0.143927	0.708847	0.482821	0	0	-0.0368368	-0.235455	0.132424	0.81785	1.5588	0	0
0.07	1.97776	1.41775	-0.307356	0.582435	-0.612978	0.927889	0.251254	0.111193	-0.307071	0.456051	-0.31487	0	0	-0.106541	-0.313311	-0.221667	0.923025	-0.595269	0	0	-0.0938305	0.163135	-0.193733	-0.226512	-0.246464	-0.183243	0.715739	0.508683	0	0	-0.0311958	-0.23694	0.158098	0.79768	1.53543	0	0
0.08	1.9946	1.41765	-0.329903	0.583838	-0.602836	0.929115	0.236637	0.114831	-0.306049	0.457024	-0.305547	0	0	-0.0749972	-0.319052	-0.206156	0.980889	-0.614405	0	0	-0.0984534	0.161124	-0.189017	-0.224567	-0.248695	-0.176382	0.714519	0.500678	0	0	-0.0422985	-0.232646	0.141578	0.790399	1.54796	0	0
0.09	2.0261	1.41765	-0.365406	0.585028	-0.592894	0.930725	0.21839	0.118085	-0.300478	0.453101	-0.29908	0	0	-0.0450203	-0.321984	-0.188324	1.03458	-0.621095	0	0	-0.105594	0.158026	-0.185135	-0.221575	-0.249735	-0.171859	0.711513	0.495012	0	0	-0.0520738	-0.229333	0.127071	0.782834	1.55821	0	0
0.1	2.05964	1.41821	-0.40178	0.586092	-0.583137	0.932476	0.199067	0.120836	-0.291751	0.445972	-0.293757	0	0	-0.015297	-0.321829	-0.167479	1.08405	-0.607761	0	0	-0.112875	0.154014	-0.182553	-0.217594	-0.249963	-0.168297	0.706938	0.489898	0	0	-0.060762	-0.225506	0.11131	0.773777	1.56777	0	0
0.11	2.08726	1.41948	-0.431341	0.587066	-0.573455	0.934177	0.179483	0.123058	-0.282627	0.435723	-0.288657	0	0	0.0150383	-0.318737	-0.14388	1.12963	-0.567547	0	0	-0.118489	0.149349	-0.182464	-0.211947	-0.250272	-0.162872	0.699953	0.484315	0	0	-0.0708795	-0.221786	0.0934715	0.765396	1.5708	0	0
0.12	2.12058	1.42075	-0.46706	0.588045	-0.563806	0.935899	0.158418	0.124432	-0.274844	0.425418	-0.28319	0	0	0.0430205	-0.313351	-0.121655	1.16973	-0.522038	0	0	-0.124413	0.143767	-0.181125	-0.206953	-0.25007	-0.158583	0.692781	0.479803	0	0	-0.0801828	-0.220665	0.0820815	0.756873	1.5708	0	0
0.13	2.15108	1.42303	-0.500562	0.588967	-0.554192	0.93751	0.138278	0.124272	-0.269741	0.416309	-0.277034	0	0	0.0713372	-0.306327	-0.103318	1.20531	-0.4815	0	0	-0.128777	0.137521	-0.1788	-0.203202	-0.249336	-0.156939	0.686298	0.476022	0	0	-0.0883421	-0.219296	0.0721315	0.746926	1.5708	0	0
0.14	2.17557	1.42651	-0.529274	0.589894	-0.544637	0.93893	0.120265	0.122833	-0.266458	0.407826	-0.268783	0	0	0.100344	-0.297869	-0.0889981	1.23674	-0.427979	0	0	-0.13129	0.130918	-0.174517	-0.200223	-0.232179	-0.204084	0.679749	0.526707	0	0	-0.0954832	-0.217244	0.0626283	0.735524	1.5708	0	0
0.15	2.24373	1.42577	-0.604105	0.591	-0.534813	0.940931	0.0921308	0.122118	-0.261637	0.394638	-0.268238	0	0	0.122298	-0.300813	-0.123393	1.2582	-0.393995	0	0	-0.142637	0.123454	-0.174602	-0.193988	-0.247795	-0.15268	0.675197	0.478528	0	0	-0.110192	-0.214649	0.0403704	0.733101	1.5708	0	0
0.16	2.25312	1.43173	-0.616578	0.591896	-0.525537	0.941923	0.0793579	0.119509	-0.25631	0.38664	-0.26384	0	0	0.149796	-0.28042	-0.0705411	1.27844	-0.363792	0	0	-0.141381	0.115666	-0.172195	-0.192621	-0.246761	-0.152546	0.670231	0.482671	0	0	-0.117479	-0.213822	0.0317681	0.722445	1.5708	0	0
0.17	2.30675	1.43386	-0.676401	0.593062	-0.515959	0.943417	0.0575717	0.116469	-0.251151	0.375925	-0.261059	0	0	0.169977	-0.271677	-0.0684127	1.28891	-0.344171	0	0	-0.147535	0.106891	-0.166551	-0.192019	-0.244908	-0.154271	0.668201	0.485033	0	0	-0.125404	-0.214086	0.024304	0.714646	1.5708	0	0
0.18	2.36969	1.43545	-0.74611	0.594256	-0.506429	0.944874	0.0354889	0.112278	-0.246193	0.36606	-0.258491	0	0	0.187458	-0.262863	-0.0710076	1.29318	-0.327221	0	0	-0.154873	0.0975452	-0.160981	-0.190618	-0.242287	-0.157334	0.666524	0.486984	0	0	-0.133557	-0.215121	0.0175348	0.707963	1.5708	0	0
0.19	2.42606	1.43852	-0.810125	0.595464	-0.496897	0.946034	0.0179491	0.106229	-0.242308	0.361366	-0.254114	0	0	0.20616	-0.254536	-0.0794185	1.29207	-0.323126	0	0	-0.158429	0.0878515	-0.150661	-0.192278	-0.238084	-0.168505	0.665688	0.491822	0	0	-0.137042	-0.217172	0.0198487	0.695943	1.5708	0	0
0.2	2.49661	1.43872	-0.889395	0.596728	-0.487443	0.947261	-0.00359972	0.10075	-0.235312	0.3535	-0.251541	0	0	0.219609	-0.248702	-0.0953483	1.28587	-0.307201	0	0	-0.166447	0.0780092	-0.143853	-0.190133	-0.238228	-0.164263	0.664729	0.487348	0	0	-0.144993	-0.217616	0.0115855	0.690933	1.5708	0	0
0.21	2.57073	1.43674	-0.97299	0.598064	-0.478006	0.948432	-0.0273818	0.0952744	-0.2296	0.344273	-0.249909	0	0	0.22963	-0.245546	-0.118411	1.2748	-0.291029	0	0	-0.176288	0.0684913	-0.13675	-0.187655	-0.238171	-0.161175	0.664719	0.483215	0	0	-0.152992	-0.218249	0.00352113	0.687535	1.5708	0	0
0.22	2.64255	1.43219	-1.0542	0.599322	-0.468554	0.949558	-0.0537614	0.0901204	-0.225743	0.33381	-0.248689	0	0	0.236419	-0.245063	-0.1465	1.25922	-0.276589	0	0	-0.187923	0.0598949	-0.130055	-0.185154	-0.238109	-0.159006	0.666107	0.4795	0	0	-0.161468	-0.219251	-0.00365146	0.686164	1.5708	0	0
0.23	2.70452	1.42616	-1.12456	0.600381	-0.458979	0.950494	-0.0818349	0.0854852	-0.224479	0.321277	-0.247635	0	0	0.241556	-0.248299	-0.179559	1.24069	-0.266985	0	0	-0.199545	0.052427	-0.124505	-0.183325	-0.23802	-0.158041	0.668974	0.47583	0	0	-0.170301	-0.220055	-0.010807	0.685846	1.5708	0	0
0.24	2.75756	1.41358	-1.18768	0.601499	-0.449094	0.951436	-0.118138	0.0837887	-0.221197	0.304452	-0.242647	0	0	0.238367	-0.271783	-0.244462	1.22398	-0.267538	0	0	-0.216788	0.0482386	-0.112766	-0.1883	-0.224581	-0.203697	0.681325	0.516372	0	0	-0.177496	-0.221946	-0.0113076	0.688131	1.5708	0	0
0.25	2.80677	1.40002	-1.24532	0.602371	-0.439421	0.952382	-0.154558	0.0808797	-0.218191	0.28817	-0.250701	0	0	0.231069	-0.284718	-0.295573	1.1975	-0.271136	0	0	-0.237005	0.0420829	-0.117158	-0.179748	-0.242778	-0.145818	0.686154	0.457479	0	0	-0.197951	-0.219251	-0.0389925	0.703144	1.5708	0	0
0.26	2.84185	1.39298	-1.28757	0.603072	-0.429841	0.952781	-0.179938	0.0759073	-0.217479	0.278779	-0.249191	0	0	0.230482	-0.286161	-0.329796	1.16313	-0.271567	0	0	-0.247596	0.0362732	-0.112383	-0.179015	-0.242688	-0.14729	0.691746	0.456605	0	0	-0.205814	-0.219559	-0.044164	0.703945	1.5708	0	0
0.27	2.87073	1.38675	-1.32267	0.603668	-0.420261	0.952974	-0.204472	0.0714733	-0.216114	0.267922	-0.248209	0	0	0.229468	-0.285015	-0.359748	1.1226	-0.275376	0	0	-0.256992	0.0309692	-0.107934	-0.178984	-0.24299	-0.148149	0.697594	0.457264	0	0	-0.213317	-0.220429	-0.0474189	0.705462	1.5708	0	0
0.28	2.89463	1.38094	-1.35191	0.60416	-0.410688	0.95296	-0.228721	0.0677178	-0.214498	0.256279	-0.246634	0	0	0.227775	-0.282394	-0.386751	1.07694	-0.283411	0	0	-0.265803	0.0263801	-0.103672	-0.179318	-0.243523	-0.149355	0.703752	0.459214	0	0	-0.220031	-0.221334	-0.0495859	0.707547	1.5708	0	0
0.29	2.91216	1.37708	-1.37407	0.604571	-0.401094	0.952625	-0.250077	0.0644863	-0.213198	0.246096	-0.244365	0	0	0.227499	-0.278517	-0.41124	1.02724	-0.292456	0	0	-0.271902	0.0225001	-0.0997748	-0.179298	-0.243715	-0.151475	0.708455	0.461204	0	0	-0.226199	-0.222245	-0.0505168	0.708861	1.5708	0	0
